<?xml version="1.0" encoding="UTF-8"?>
<svg data-bbox="0 0 124.38 110.403" viewBox="0 0 124.45 110.37" xmlns="http://www.w3.org/2000/svg" data-type="color">
    <g>
        <path d="M16.08 54a12.89 12.89 0 0 1-4 1.57A19 19 0 0 1 8 56a18.31 18.31 0 0 1-4-.42A12.69 12.69 0 0 1 0 54a12.89 12.89 0 0 1 4-1.57 18.79 18.79 0 0 1 8 0A12.62 12.62 0 0 1 16.08 54z" fill="#726a96" data-color="1"/>
        <path d="M21.51 36.47a13.38 13.38 0 0 1-4.11-1.58 20 20 0 0 1-6.14-5.49 13.3 13.3 0 0 1-2-3.92 13.18 13.18 0 0 1 4.11 1.58 18.86 18.86 0 0 1 3.35 2.43 19.42 19.42 0 0 1 2.78 3.07 13.26 13.26 0 0 1 2.01 3.91z" fill="#726a96" data-color="1"/>
        <path d="M39.34 22.66a14.19 14.19 0 0 1-3-3.35 20.08 20.08 0 0 1-1.94-3.77 20.06 20.06 0 0 1-1.15-4.08A13.77 13.77 0 0 1 33.17 7a13.65 13.65 0 0 1 3 3.35 20.08 20.08 0 0 1 1.94 3.77 20.9 20.9 0 0 1 1.14 4.08 13.77 13.77 0 0 1 .09 4.46z" fill="#726a96" data-color="1"/>
        <path d="M108.38 54a12.57 12.57 0 0 1 4-1.56 18.79 18.79 0 0 1 8 0 12.89 12.89 0 0 1 4 1.57 12.69 12.69 0 0 1-4 1.58 18.31 18.31 0 0 1-4 .42 19 19 0 0 1-4-.43 12.84 12.84 0 0 1-4-1.58z" fill="#726a96" data-color="1"/>
        <path d="M102.94 36.47a13.26 13.26 0 0 1 2-3.91 19.42 19.42 0 0 1 2.78-3.07 18.86 18.86 0 0 1 3.35-2.43 13.38 13.38 0 0 1 4.11-1.58 13.3 13.3 0 0 1-2 3.92 20 20 0 0 1-6.14 5.49 13.28 13.28 0 0 1-4.1 1.58z" fill="#726a96" data-color="1"/>
        <path d="M85.11 22.66a14 14 0 0 1 .08-4.5 20.9 20.9 0 0 1 1.14-4.08 20.69 20.69 0 0 1 1.94-3.77 13.65 13.65 0 0 1 3-3.35 13.77 13.77 0 0 1-.08 4.5 20.73 20.73 0 0 1-3.09 7.85 14.19 14.19 0 0 1-2.99 3.35z" fill="#726a96" data-color="1"/>
        <path d="M62 17a14.11 14.11 0 0 1-1.57-4.25A21.13 21.13 0 0 1 60 8.5a20.43 20.43 0 0 1 .43-4.25A14.11 14.11 0 0 1 62 0a14.11 14.11 0 0 1 1.57 4.25A20.43 20.43 0 0 1 64 8.5a21.13 21.13 0 0 1-.43 4.25A14.11 14.11 0 0 1 62 17z" fill="#726a96" data-color="1"/>
        <path fill="#e9c77b" d="M64.946 27.358c7.96.873 13.548 9.475 12.48 19.215-1.07 9.74-8.388 16.926-16.349 16.053S47.53 53.15 48.598 43.411c1.069-9.74 8.388-16.926 16.348-16.053z" data-color="2"/>
        <path d="M60.82 27.62a12.8 12.8 0 0 1 6.3.07 14.61 14.61 0 0 1 5.68 3 20.12 20.12 0 0 1 6.42 11.57 22.07 22.07 0 0 1-1.75 13.87 19.15 19.15 0 0 1-4.51 6A16.45 16.45 0 0 1 66 65.76a14.74 14.74 0 0 1-8-.36 15.46 15.46 0 0 1-6.51-4.33 17.74 17.74 0 0 1-3.65-6.42 21.66 21.66 0 0 1-1-6.95 23.45 23.45 0 0 1 4-12.6 17.28 17.28 0 0 1 9.98-7.48zm0 0a13 13 0 0 0-5.52 3 15.84 15.84 0 0 0-3.7 5 18.73 18.73 0 0 0-1.31 11.84 16.38 16.38 0 0 0 5.39 9.37A9.91 9.91 0 0 0 64.39 59a13.77 13.77 0 0 0 7.82-5.82 20 20 0 0 0 3.5-10.56A18.44 18.44 0 0 0 75 36.7a14.48 14.48 0 0 0-2.89-5.3 11.86 11.86 0 0 0-5.07-3.47 11.28 11.28 0 0 0-6.22-.31z" fill="#a0c1b8" data-color="3"/>
        <path d="M62.68 62.17a83 83 0 0 1 1.1 20.1c-.14 1.69-.24 3.39-.53 5.08-.13.84-.24 1.69-.39 2.54s-.37 1.69-.55 2.54a47.87 47.87 0 0 1-1.47 5.08c-.33.85-.7 1.68-1.06 2.52s-.87 1.66-1.31 2.49a20.5 20.5 0 0 1-3.76 4.64c-.4.34-.86.64-1.3 1A8.16 8.16 0 0 1 52 109l-1.51.7c-.54.16-1.08.3-1.63.43a13.43 13.43 0 0 1-6.3-.22 10.5 10.5 0 0 1-1.41-.43 13.28 13.28 0 0 1-1.34-.51 26.08 26.08 0 0 1-2.47-1.28 41.16 41.16 0 0 1-8.11-6.48q-1.77-1.8-3.44-3.63c-.56-.61-1.12-1.23-1.71-1.79a10.76 10.76 0 0 0-1.86-1.63A16.23 16.23 0 0 1 27 96c1.5.79 2.92 1.64 4.35 2.44a63.25 63.25 0 0 0 8.44 4.28c2.78 1.11 5.53 1.57 7.55.92a7 7 0 0 0 2.8-1.65 14.2 14.2 0 0 0 2.35-3.07 20.84 20.84 0 0 0 1-1.87l.91-2c.52-1.43 1.1-2.83 1.52-4.34.23-.75.48-1.49.69-2.24s.4-1.54.61-2.31c.43-1.52.76-3.1 1.13-4.67 1.46-6.31 2.65-12.78 4.33-19.32z" fill="#a0c1b8" data-color="3"/>
        <path d="M62.67 58.91c1.55 6.92 2.63 13.74 4.14 20.35.19.82.36 1.65.56 2.46l.63 2.42c.39 1.63.94 3.17 1.41 4.73a35.65 35.65 0 0 0 4 8.37 13.56 13.56 0 0 0 2.78 3 9.82 9.82 0 0 0 3.36 1.82 13.25 13.25 0 0 0 4 .47 22 22 0 0 0 4.49-.67 59.71 59.71 0 0 0 9.37-3.36c1.58-.67 3.16-1.4 4.8-2.07a20.93 20.93 0 0 1 5.08-1.63 16 16 0 0 0-2.08 1.58c-.67.55-1.32 1.13-2 1.7q-2 1.74-4.07 3.38a41 41 0 0 1-9.38 5.62c-.86.38-1.79.66-2.71 1-.46.16-1 .23-1.44.35a13.83 13.83 0 0 1-1.48.28l-1.53.17a11.58 11.58 0 0 1-1.56 0 18.45 18.45 0 0 1-3.2-.36c-.53-.11-1-.31-1.57-.47a8.14 8.14 0 0 1-1.53-.61l-1.46-.76a15.84 15.84 0 0 1-1.34-.92 15.06 15.06 0 0 1-2.37-2.12l-.56-.56-.47-.61-.92-1.21a34.71 34.71 0 0 1-4.63-10.48 53.22 53.22 0 0 1-.99-5.36l-.39-2.68c-.1-.89-.15-1.79-.22-2.68a80.92 80.92 0 0 1 1.28-21.15z" fill="#a0c1b8" data-color="3"/>
        <path d="M25.76 56.64a13.53 13.53 0 0 0 2.13 5 14.78 14.78 0 0 0 3.75 3.53 30.41 30.41 0 0 0 9.62 3.94 84.84 84.84 0 0 0 21.34 2A96.93 96.93 0 0 0 84 68.47a39 39 0 0 0 9.87-3.79 16 16 0 0 0 4.06-3.22 10.54 10.54 0 0 0 2.42-4.82 9.55 9.55 0 0 1 .09 2.93 10.91 10.91 0 0 1-.86 2.91A15.62 15.62 0 0 1 96 67.41a33.11 33.11 0 0 1-10.21 6.28 65.54 65.54 0 0 1-23 4.43 60.62 60.62 0 0 1-23.19-3.79 28.17 28.17 0 0 1-10.17-6.57 15 15 0 0 1-3.22-5.25 11.58 11.58 0 0 1-.45-5.87z" fill="#a0c1b8" data-color="3"/>
        <path d="M107.68 57.69a44.79 44.79 0 0 0-1.86-7.92 34.8 34.8 0 0 0-3.35-7.14 34.08 34.08 0 0 0-10.74-10.8 46.41 46.41 0 0 0-14-5.93 59.56 59.56 0 0 0-15.3-1.7c-10.28.18-20.66 2.74-29.32 8.26A39 39 0 0 0 18 50a48.06 48.06 0 0 0-2.55 7.74 34.46 34.46 0 0 1 3.45-16.38A38.22 38.22 0 0 1 29.86 28a48.83 48.83 0 0 1 15.36-8 58.89 58.89 0 0 1 17.06-2.8 57.94 57.94 0 0 1 17.15 2.31 46.06 46.06 0 0 1 15.51 7.87 34.26 34.26 0 0 1 10.58 13.7 32.33 32.33 0 0 1 2.16 16.61z" fill="#726a96" data-color="1"/>
    </g>
</svg>
