<?xml version="1.0" encoding="UTF-8"?>
<svg data-bbox="2.5 2.5 84.86 71.699" viewBox="0 0 89.86 76.7" xmlns="http://www.w3.org/2000/svg" data-type="ugc">
    <g>
        <path d="M72.65 25l5.91-7m-18.38-.79L63.1 6.5m15.1 34.59h9.16m-75.09-.61H2.5m15-12.42l-9.09-8m21.21-2.5l-4.08-10.2M45.21 15l-.84-12.5m-3 22.17a10.07 10.07 0 1 0 13 5.8 10.07 10.07 0 0 0-13.04-5.8zm-22.47 41c4.87 1.66 24.1 27.41 26.56-19.55m-.25-1.62c2.41 47 25 22.83 29.93 21.19M21.26 42.41c0 16.2 48.35 14 48.35 0m6.45.3c0-35.31-61.21-31.15-61.21 0" fill="none" stroke="#ffffff" stroke-linecap="round" stroke-miterlimit="10" stroke-width="5"/>
    </g>
</svg>
